<?xml version="1.0" encoding="UTF-8" standalone="no"?>
<svg
   xmlns:dc="http://purl.org/dc/elements/1.1/"
   xmlns:cc="http://creativecommons.org/ns#"
   xmlns:rdf="http://www.w3.org/1999/02/22-rdf-syntax-ns#"
   xmlns:svg="http://www.w3.org/2000/svg"
   xmlns="http://www.w3.org/2000/svg"
   version="1.1"
   id="svg2"
   viewBox="0 0 49.999998 43.924598"
   height="12.396498mm"
   width="14.111111mm">
  <defs
     id="defs4" />
  <metadata
     id="metadata7">
    <rdf:RDF>
      <cc:Work
         rdf:about="">
        <dc:format>image/svg+xml</dc:format>
        <dc:type
           rdf:resource="http://purl.org/dc/dcmitype/StillImage" />
        <dc:title></dc:title>
      </cc:Work>
    </rdf:RDF>
  </metadata>
  <g
     transform="translate(-480.71427,-481.82825)"
     id="layer1">
    <path
       id="path4147"
       d="m 488.10793,523.27535 c -2.26788,-2.26788 -2.48484,-3.17464 -2.20455,-9.21363 0.29923,-6.44695 0.20774,-6.74848 -2.43911,-8.03913 -1.5125,-0.73752 -2.75,-1.74183 -2.75,-2.23181 0,-0.48998 1.2375,-1.49231 2.75,-2.2274 2.65037,-1.28812 2.73784,-1.57846 2.41427,-8.0143 -0.30414,-6.04944 -0.0967,-6.91676 2.20455,-9.21802 2.76084,-2.76084 7.09466,-3.38082 7.95529,-1.13805 0.67142,1.7497 -0.13024,2.59777 -2.45559,2.59777 -2.86349,0 -4.07561,3.49432 -3.31735,9.56327 0.46975,3.75975 0.29674,5.91507 -0.55745,6.94429 -0.98481,1.18663 -0.98481,1.79825 0,2.98488 0.85419,1.02922 1.0272,3.18454 0.55745,6.94429 -0.75826,6.06895 0.45386,9.56327 3.31735,9.56327 2.32535,0 3.12701,0.84807 2.45559,2.59777 -0.8576,2.23486 -5.19061,1.62663 -7.93045,-1.1132 z m 27.28223,1.1132 c -0.67142,-1.7497 0.13024,-2.59777 2.45559,-2.59777 2.86349,0 4.07561,-3.49432 3.31735,-9.56327 -0.46975,-3.75975 -0.29674,-5.91507 0.55745,-6.94429 0.98481,-1.18663 0.98481,-1.79825 0,-2.98488 -0.85419,-1.02922 -1.0272,-3.18454 -0.55745,-6.94429 0.75826,-6.06895 -0.45386,-9.56327 -3.31735,-9.56327 -2.32535,0 -3.12701,-0.84807 -2.45559,-2.59777 0.8576,-2.23486 5.19061,-1.62663 7.93045,1.1132 2.26788,2.26788 2.48484,3.17465 2.20455,9.21363 -0.29923,6.44695 -0.20774,6.74848 2.43911,8.03913 1.5125,0.73752 2.75,1.74183 2.75,2.23181 0,0.48998 -1.2375,1.49429 -2.75,2.23181 -2.64685,1.29065 -2.73834,1.59218 -2.43911,8.03913 0.28029,6.03899 0.0633,6.94575 -2.20455,9.21363 -2.73984,2.73983 -7.07285,3.34806 -7.93045,1.1132 z"
       style="fill:#0199ef;fill-opacity:1" />
  </g>
</svg>
