<?xml version="1.0" encoding="UTF-8" standalone="no"?>
<svg
   xmlns:dc="http://purl.org/dc/elements/1.1/"
   xmlns:cc="http://creativecommons.org/ns#"
   xmlns:rdf="http://www.w3.org/1999/02/22-rdf-syntax-ns#"
   xmlns:svg="http://www.w3.org/2000/svg"
   xmlns="http://www.w3.org/2000/svg"
   xml:space="preserve"
   enable-background="new 0 0 674 579"
   viewBox="0 0 512 371.728"
   height="371.728"
   width="512"
   y="0px"
   x="0px"
   id="Слой_1"
   version="1.1"><metadata
     id="metadata11"><rdf:RDF><cc:Work
         rdf:about=""><dc:format>image/svg+xml</dc:format><dc:type
           rdf:resource="http://purl.org/dc/dcmitype/StillImage" /><dc:title></dc:title></cc:Work></rdf:RDF></metadata><defs
     id="defs9" /><g
     transform="translate(-53,-57)"
     style="fill:#0199e6;fill-opacity:1"
     id="g4139"><path
       style="clip-rule:evenodd;fill:#0199e6;fill-opacity:1;fill-rule:evenodd"
       d="m 419,57 c 1.664,0.67 3.313,1.382 4.994,2.004 11.605,4.299 18.904,14.556 18.905,26.688 0.004,67.813 -0.23,135.626 0.179,203.436 0.083,13.822 -14.151,28.072 -28.046,27.989 -78.306,-0.468 -156.616,-0.265 -234.925,-0.111 -3.241,0.007 -6.89,1.134 -9.652,2.855 -19.358,12.063 -38.532,24.421 -57.769,36.679 -1.532,0.976 -3.094,1.904 -5.271,3.242 0,-14.391 0,-28.235 0,-42.897 -9.081,0 -17.671,-0.249 -26.24,0.068 -9.146,0.338 -16.21,-3.539 -21.654,-10.319 C 56.775,303.214 55.138,298.906 53,295 53,223.333 53,151.667 53,80 57.023,67.648 65.43,60.062 78,57 c 113.667,0 227.333,0 341,0 z"
       id="path3" /><path
       style="clip-rule:evenodd;fill:#0199e6;fill-opacity:1;fill-rule:evenodd"
       d="m 565,360 c -0.609,1.511 -1.328,2.987 -1.81,4.538 -3.149,10.145 -14.844,20.39 -27.328,19.454 -7.75,-0.581 -15.579,-0.108 -23.836,-0.108 0,14.992 0,29.56 0,44.844 -1.913,-1.038 -3.213,-1.646 -4.413,-2.409 -20.785,-13.228 -41.508,-26.555 -62.396,-39.617 -2.625,-1.643 -6.107,-2.692 -9.196,-2.701 -54.475,-0.16 -108.953,-0.401 -163.424,0.086 -13.485,0.12 -28.712,-14.141 -27.59,-27.812 0.61,-7.43 0.109,-14.95 0.109,-23.158 2.192,0 4.115,0 6.038,0 60.639,0 121.283,-0.423 181.914,0.292 15.569,0.184 29.599,-14.976 29.333,-29.356 -0.792,-42.966 -0.285,-85.956 -0.286,-128.937 0,-1.804 0,-3.606 0,-6 2.151,0 3.923,0 5.695,0 21.823,10e-4 43.646,-0.002 65.47,0.002 15.943,0.002 26.143,7.66 30.83,23.108 0.189,0.624 0.589,1.185 0.89,1.774 0,55.333 0,110.667 0,166 z"
       id="path5" /></g></svg>