<?xml version="1.0" encoding="UTF-8" standalone="no"?>
<svg
   xmlns:dc="http://purl.org/dc/elements/1.1/"
   xmlns:cc="http://creativecommons.org/ns#"
   xmlns:rdf="http://www.w3.org/1999/02/22-rdf-syntax-ns#"
   xmlns:svg="http://www.w3.org/2000/svg"
   xmlns="http://www.w3.org/2000/svg"
   version="1.1"
   id="svg2"
   viewBox="0 0 49 49.395963"
   height="13.940639mm"
   width="13.828889mm">
  <defs
     id="defs4" />
  <metadata
     id="metadata7">
    <rdf:RDF>
      <cc:Work
         rdf:about="">
        <dc:format>image/svg+xml</dc:format>
        <dc:type
           rdf:resource="http://purl.org/dc/dcmitype/StillImage" />
        <dc:title></dc:title>
      </cc:Work>
    </rdf:RDF>
  </metadata>
  <g
     transform="translate(-480.95792,-479.28201)"
     id="layer1">
    <path
       id="path4160"
       d="m 500.45508,526.27455 c -0.54844,-1.44251 -0.99716,-3.01689 -0.99716,-3.49862 0,-1.82635 -2.17894,-2.1067 -4.50879,-0.58012 -3.27668,2.14697 -4.75389,1.99994 -7.3169,-0.72825 -2.60417,-2.77202 -2.69278,-3.96462 -0.53885,-7.25194 1.86527,-2.84677 1.47928,-3.50238 -2.95723,-5.02283 -2.91265,-0.9982 -3.17823,-1.45033 -3.17823,-5.41078 0,-3.96045 0.26558,-4.41258 3.17823,-5.41078 4.43651,-1.52045 4.8225,-2.17606 2.95723,-5.02283 -2.19749,-3.35379 -2.06319,-4.81593 0.67899,-7.39208 2.77201,-2.60417 3.96462,-2.69278 7.25194,-0.53885 2.84677,1.86527 3.50238,1.47928 5.02283,-2.95723 0.9982,-2.91265 1.45033,-3.17823 5.41078,-3.17823 3.96045,0 4.41258,0.26558 5.41078,3.17823 1.52045,4.43651 2.17606,4.8225 5.02283,2.95723 3.35379,-2.19749 4.81593,-2.06319 7.39208,0.67899 2.60417,2.77201 2.69279,3.96462 0.53885,7.25194 -1.86527,2.84677 -1.47928,3.50238 2.95723,5.02283 2.91265,0.9982 3.17823,1.45033 3.17823,5.41078 0,3.96045 -0.26558,4.41258 -3.17823,5.41078 -4.43651,1.52045 -4.8225,2.17606 -2.95723,5.02283 2.19749,3.35379 2.06319,4.81593 -0.67899,7.39208 -2.77202,2.60417 -3.96462,2.69278 -7.25194,0.53885 -2.84747,-1.86573 -3.50499,-1.47818 -5.01719,2.95723 -0.95608,2.80426 -1.57416,3.21443 -5.25284,3.48587 -3.70919,0.27369 -4.27929,0.0182 -5.16642,-2.3151 z m 7.67009,-3.57879 c 0.85199,-4.25996 4.53434,-5.90852 8.33082,-3.72964 2.47797,1.42216 2.95577,1.43348 4.28764,0.1016 1.33188,-1.33187 1.32056,-1.80967 -0.1016,-4.28764 -2.17888,-3.79648 -0.53032,-7.47883 3.72964,-8.33082 2.24394,-0.44879 3.08625,-1.17674 3.08625,-2.66725 0,-1.49051 -0.84231,-2.21846 -3.08625,-2.66725 -4.25996,-0.85199 -5.90852,-4.53434 -3.72964,-8.33082 1.42216,-2.47797 1.43348,-2.95577 0.1016,-4.28764 -1.33187,-1.33188 -1.80967,-1.32056 -4.28764,0.1016 -3.79648,2.17888 -7.47883,0.53032 -8.33082,-3.72964 -0.86708,-4.33538 -4.46742,-4.33538 -5.3345,0 -0.85199,4.25996 -4.53434,5.90852 -8.33082,3.72964 -2.47797,-1.42216 -2.95577,-1.43348 -4.28764,-0.1016 -1.33188,1.33187 -1.32056,1.80967 0.1016,4.28764 2.17888,3.79648 0.53032,7.47883 -3.72964,8.33082 -4.33538,0.86708 -4.33538,4.46742 0,5.3345 4.25996,0.85199 5.90852,4.53434 3.72964,8.33082 -1.42216,2.47797 -1.43348,2.95577 -0.1016,4.28764 1.33187,1.33188 1.80967,1.32056 4.28764,-0.1016 3.79648,-2.17888 7.47883,-0.53032 8.33082,3.72964 0.44879,2.24394 1.17674,3.08625 2.66725,3.08625 1.49051,0 2.21846,-0.84231 2.66725,-3.08625 z m -7.90468,-9.47914 c -3.00289,-1.62935 -5.76257,-6.14756 -5.76257,-9.43461 0,-5.30014 5.69986,-11 11,-11 3.38788,0 7.8489,2.80712 9.48307,5.96727 1.91745,3.70793 1.91745,6.35753 0,10.06546 -2.76751,5.35178 -9.34494,7.31863 -14.7205,4.40188 z m 9.81712,-1.32008 c 1.69383,-1.03289 3.67429,-3.31348 4.40102,-5.06796 1.79672,-4.33767 -0.56254,-9.40265 -5.46975,-11.74274 -3.28326,-1.56567 -3.73866,-1.56567 -7.02192,0 -4.90721,2.34009 -7.26647,7.40507 -5.46975,11.74274 1.32472,3.19816 6.1704,6.94595 8.98071,6.94595 0.825,0 2.88586,-0.84509 4.57969,-1.87799 z m -8.9247,-3.94327 c -3.58775,-3.96441 -0.83024,-10.17126 4.51876,-10.17126 5.1213,0 7.7919,6.91114 3.99751,10.34501 -2.41517,2.1857 -6.4556,2.10326 -8.51627,-0.17375 z m 7.34501,-1.17126 c 1.1,-1.1 2,-2.45 2,-3 0,-0.55 -0.9,-1.9 -2,-3 -1.1,-1.1 -2.45,-2 -3,-2 -0.55,0 -1.9,0.9 -3,2 -1.1,1.1 -2,2.45 -2,3 0,0.55 0.9,1.9 2,3 1.1,1.1 2.45,2 3,2 0.55,0 1.9,-0.9 3,-2 z"
       style="fill:#0199ef;fill-opacity:1" />
  </g>
</svg>
