<?xml version="1.0" encoding="UTF-8" standalone="no"?>
<svg
   xmlns:dc="http://purl.org/dc/elements/1.1/"
   xmlns:cc="http://creativecommons.org/ns#"
   xmlns:rdf="http://www.w3.org/1999/02/22-rdf-syntax-ns#"
   xmlns:svg="http://www.w3.org/2000/svg"
   xmlns="http://www.w3.org/2000/svg"
   version="1.1"
   id="svg2"
   viewBox="0 0 49 49.395963"
   height="13.940639mm"
   width="13.828889mm">
  <defs
     id="defs4" />
  <metadata
     id="metadata7">
    <rdf:RDF>
      <cc:Work
         rdf:about="">
        <dc:format>image/svg+xml</dc:format>
        <dc:type
           rdf:resource="http://purl.org/dc/dcmitype/StillImage" />
        <dc:title></dc:title>
      </cc:Work>
    </rdf:RDF>
  </metadata>
  <g
     transform="translate(-480.95792,-479.28201)"
     id="layer1">
    <path
       id="path4173"
       d="m 497.19706,528.0689 c -5.59541,-2.08828 -10.36854,-6.13275 -13.47567,-11.41848 -2.37098,-4.03341 -2.7723,-5.81316 -2.7723,-12.29453 0,-6.68684 0.35637,-8.15743 3.02914,-12.5 9.82492,-15.96299 32.55626,-16.39423 42.44254,-0.80518 10.11916,15.95626 -0.39208,36.8008 -19.16821,38.01191 -3.91944,0.25282 -7.72252,-0.12302 -10.0555,-0.99372 z m 14.75203,-2.75309 c 2.47422,-0.68495 5.76879,-2.87614 8.63708,-5.74442 9.18115,-9.18115 9.18115,-21.09301 0,-30.27416 -9.18115,-9.18115 -21.09301,-9.18115 -30.27416,0 -8.94083,8.94084 -9.14794,20.73546 -0.5238,29.82996 6.22154,6.56086 13.48712,8.58983 22.16088,6.18862 z m -18.49572,-10.1315 c 0.002,-0.6875 1.35043,-3.275 2.99572,-5.75 1.64529,-2.475 2.99336,-5.21776 2.99572,-6.09501 0.005,-1.91523 3.09896,-4.9033 5.08302,-4.90927 0.78169,-0.002 3.44626,-1.35043 5.92126,-2.99572 7.5894,-5.04516 9.04516,-3.5894 4,4 -1.64529,2.475 -2.99336,5.21776 -2.99572,6.09501 -0.005,1.91523 -3.09896,4.9033 -5.08302,4.90927 -0.78169,0.002 -3.44626,1.35043 -5.92126,2.99572 -4.82477,3.20733 -7.00258,3.75212 -6.99572,1.75 z m 14.49572,-10.75 c 0,-1.83273 -0.60174,-2.58545 -2.25447,-2.82014 -1.35228,-0.19202 -2.49559,0.3082 -2.85699,1.25 -0.99567,2.59467 0.39988,4.73919 2.85699,4.39028 1.65273,-0.23469 2.25447,-0.98741 2.25447,-2.82014 z"
       style="fill:#0199ef;fill-opacity:1" />
  </g>
</svg>
