<?xml version="1.0" encoding="utf-8"?>
<!-- Generator: Adobe Illustrator 16.0.0, SVG Export Plug-In . SVG Version: 6.00 Build 0)  -->
<!DOCTYPE svg PUBLIC "-//W3C//DTD SVG 1.1//EN" "http://www.w3.org/Graphics/SVG/1.1/DTD/svg11.dtd">
<svg version="1.1" id="Слой_1" xmlns="http://www.w3.org/2000/svg" xmlns:xlink="http://www.w3.org/1999/xlink" x="0px" y="0px"
	 width="2059.291px" height="1825.338px" viewBox="-358.501 -124.548 2059.291 1825.338"
	 enable-background="new -358.501 -124.548 2059.291 1825.338" xml:space="preserve">
<g>
	<path fill="#0199E6" d="M671.18-0.707c263.48,0,526.963,0.026,790.443-0.044c23.363-0.007,46.473,2.047,67.984,11.481
		c61.838,27.12,99.898,73.051,108.965,141.06c1.053,7.893,1.168,15.953,1.168,23.938c0.055,389.806,0.043,779.61,0.053,1169.417
		c0.002,73.037-34.561,125.061-97.602,159.246c-21.396,11.602-45.012,16.047-69.254,17c-2.664,0.105-5.332,0.107-7.998,0.107
		c-529.131,0.004-1058.261,0.084-1587.391-0.092c-71.807-0.023-123.39-34.582-157.411-96.549
		c-11.89-21.656-16.576-45.537-17.49-70.146c-0.117-3.16-0.093-6.332-0.093-9.498c-0.004-389.973,0.033-779.945-0.062-1169.917
		c-0.009-38.703,9.779-74.14,33.436-105.086c28.904-37.811,66.066-62.492,113.905-69.095c10.353-1.429,20.926-1.747,31.398-1.75
		C144.55-0.726,407.865-0.707,671.18-0.707z M1501.495,193.609c-1.736-13.697,3.561-28.803-7.979-40.809
		c-1.807-1.879-1.99-5.24-3.189-7.793c-1.719-3.668-4.24-5.433-8.781-4.64c-3.289,0.574-6.869-0.263-10.283-0.732
		c-3.717-0.512-7.395-1.924-11.084-1.924c-526.297-0.089-1052.595-0.085-1578.892-0.085c-1.5,0-3-0.01-4.5,0.004
		c-21.043,0.193-36.154,15.499-35.794,36.598c0.176,10.322,0.619,20.658,1.431,30.949c4.397,55.723,21.047,107.548,49.951,155.404
		c28.101,46.526,65.026,85.09,107.458,118.628c102.078,80.685,204.229,161.271,306.282,241.983
		c45.343,35.861,90.614,71.813,135.741,107.946c31.463,25.192,62.176,51.344,94.074,75.962
		c23.175,17.885,47.457,34.416,74.082,47.053c17.866,8.479,36.314,14.762,56.342,15.645c23.29,1.025,44.783-5.404,65.418-15.344
		c33.512-16.143,63.513-37.852,92.604-60.638c29.765-23.313,58.011-48.549,87.626-72.059
		c120.18-95.396,240.648-190.426,360.967-285.647c28.346-22.434,57.186-44.309,84.605-67.828
		c40.709-34.917,72.703-77.352,100.436-122.998C1485.893,297.388,1505.229,248.855,1501.495,193.609z M1501.514,518.129
		c-2.371,2.606-3.709,4.231-5.205,5.698c-17.477,17.146-33.943,35.506-52.695,51.122c-33.012,27.491-67.488,53.219-101.232,79.832
		c-90.791,71.601-181.824,142.898-272.162,215.063c-56.619,45.231-112.205,91.759-168.166,137.812
		c-48.275,39.73-102.322,68.9-161.741,87.98c-33.798,10.852-68.479,13.518-103.668,7.992c-28.671-4.498-55.692-14.082-82.032-26.008
		c-40.23-18.219-78.159-40.098-112.259-68.393c-37.694-31.279-75.548-62.369-113.433-93.418
		C205.326,814.52,79.647,715.858-47.06,618.508c-38.789-29.802-76.667-60.471-109.193-97.231c-0.599-0.677-1.369-1.202-2.626-2.286
		c-0.095,2.17-0.213,3.614-0.213,5.06c-0.008,273.833-0.013,547.667,0.045,821.5c0.001,3.961,0.302,8.053,1.309,11.861
		c4.124,15.609,17.923,25.541,35.119,25.543c135.333,0.014,270.666,0.008,405.999,0.008c393.165,0,786.33,0.002,1179.496-0.035
		c3.979,0,8.074-0.01,11.904-0.912c16.609-3.904,26.732-18.014,26.732-36.781c0.004-273.498,0.004-546.998,0.004-820.497
		C1501.514,523.072,1501.514,521.411,1501.514,518.129z"/>
	<g>
		
			<line fill="none" stroke="#0199E6" stroke-width="141.7323" stroke-miterlimit="10" x1="525.532" y1="1022.462" x2="-157.739" y2="1391.093"/>
		
			<line fill="none" stroke="#0199E6" stroke-width="141.7323" stroke-miterlimit="10" x1="760.521" y1="988.777" x2="1501.532" y2="1391.093"/>
	</g>
</g>
</svg>
