<?xml version="1.0" encoding="UTF-8" standalone="no"?>
<svg
   xmlns:dc="http://purl.org/dc/elements/1.1/"
   xmlns:cc="http://creativecommons.org/ns#"
   xmlns:rdf="http://www.w3.org/1999/02/22-rdf-syntax-ns#"
   xmlns:svg="http://www.w3.org/2000/svg"
   xmlns="http://www.w3.org/2000/svg"
   version="1.1"
   id="svg2"
   viewBox="0 0 49.936085 50.001999"
   height="14.111675mm"
   width="14.093073mm">
  <defs
     id="defs4" />
  <metadata
     id="metadata7">
    <rdf:RDF>
      <cc:Work
         rdf:about="">
        <dc:format>image/svg+xml</dc:format>
        <dc:type
           rdf:resource="http://purl.org/dc/dcmitype/StillImage" />
        <dc:title></dc:title>
      </cc:Work>
    </rdf:RDF>
  </metadata>
  <g
     transform="translate(-481.02308,-478.92724)"
     id="layer1">
    <path
       id="path4186"
       d="m 485.5306,527.35781 c -1.25955,-1.25954 -1.57774,-4.08776 -1.60323,-14.25 -0.024,-9.5609 -0.39284,-13.1559 -1.5,-14.6197 -1.87238,-2.47551 -1.87238,-5.64223 0,-8.11774 0.8075,-1.06762 1.4825,-3.37149 1.5,-5.1197 0.0784,-7.83419 8.98207,-8.69024 9.0636,-0.87143 0.0175,1.6775 0.69249,3.92351 1.5,4.99113 1.91212,2.52804 1.89274,8.96164 -0.0318,10.55887 -1.18899,0.98677 -1.5,3.87346 -1.5,13.92244 0,13.02608 -0.56174,15.07756 -4.12857,15.07756 -0.95072,0 -2.43572,-0.70714 -3.3,-1.57143 z m 4.95269,-3.67857 c 0.30923,-1.2375 0.4303,-6.51986 0.26905,-11.73857 -0.25039,-8.10399 -0.54853,-9.53742 -2.04317,-9.82333 -1.58395,-0.30299 -1.75,0.74757 -1.75,11.07191 0,6.27366 0.3,11.70666 0.66667,12.07332 1.24929,1.2493 2.29434,0.67023 2.85745,-1.58333 z m 1.04882,-25.51531 c 2.08723,-1.42921 2.32101,-4.14409 0.54564,-6.33658 -2.36403,-2.91945 -6.80886,-1.9803 -7.71502,1.63011 -1.04528,4.16474 3.55254,7.18307 7.16938,4.70647 z m -0.58825,-12.48469 c -0.0259,-2.11072 -1.69949,-4.0443 -2.87289,-3.3191 -1.95235,1.20662 -1.29872,4.5691 0.8882,4.5691 1.1,0 1.99311,-0.5625 1.98469,-1.25 z m 11.57201,41.02749 c -0.85618,-1.22238 -1.57101,-3.35988 -1.5885,-4.75 -0.0175,-1.39012 -0.69249,-3.401 -1.5,-4.46862 -0.80751,-1.06762 -1.4682,-2.89411 -1.4682,-4.05887 0,-1.16476 0.66069,-2.99125 1.4682,-4.05887 1.09718,-1.45061 1.47623,-4.98047 1.5,-13.96862 0.0339,-12.81845 1.15009,-16.47251 5.0318,-16.47251 3.88171,0 4.99791,3.65406 5.0318,16.47251 0.0238,8.98815 0.40282,12.51801 1.5,13.96862 1.87238,2.47551 1.87238,5.64223 0,8.11774 -0.80751,1.06762 -1.4825,3.0785 -1.5,4.46862 -0.0419,3.33309 -2.66838,6.97251 -5.0318,6.97251 -1.03763,0 -2.58711,-1.00013 -3.4433,-2.22251 z m 5.26285,-3.60582 c 0.24018,-1.63227 -0.19449,-2.17167 -1.75,-2.17167 -1.34017,0 -2.06955,0.64613 -2.06955,1.83333 0,3.80163 3.26736,4.09105 3.81955,0.33834 z m 1.68413,-7.17573 c 2.69364,-2.97645 0.68062,-6.99594 -3.50368,-6.99594 -4.1843,0 -6.19732,4.01949 -3.50368,6.99594 0.99751,1.10223 2.57417,2.00406 3.50368,2.00406 0.92951,0 2.50617,-0.90183 3.50368,-2.00406 z m -2.00368,-22.07927 c 0,-9.48148 -0.25426,-11.41667 -1.5,-11.41667 -1.21914,0 -1.55374,1.95338 -1.787,10.4324 -0.30687,11.15494 0.0621,13.47591 2.03753,12.81742 0.90201,-0.30067 1.24947,-3.59127 1.24947,-11.83315 z m 12.7,33.88333 c -0.80713,-0.80713 -1.2,-5.35057 -1.2,-13.87756 0,-10.04898 -0.31101,-12.93567 -1.5,-13.92244 -1.92454,-1.59723 -1.94392,-8.03083 -0.0318,-10.55887 0.80751,-1.06762 1.48251,-3.31363 1.5,-4.99113 0.0815,-7.81881 8.98522,-6.96276 9.06361,0.87143 0.0175,1.74821 0.69249,4.05208 1.5,5.1197 0.8075,1.06762 1.46819,2.89411 1.46819,4.05887 0,1.16476 -0.66069,2.99125 -1.4682,4.05887 -1.10716,1.4638 -1.47601,5.0588 -1.5,14.6197 -0.0255,10.16224 -0.34368,12.99046 -1.60323,14.25 -1.87152,1.87152 -4.5677,2.0323 -6.22857,0.37143 z m 4.58242,-14.21116 c 0.25998,-10.81416 0.14075,-11.72087 -1.5,-11.40698 -1.53513,0.29369 -1.82309,1.65741 -2.0756,9.82957 -0.32466,10.50783 0.25504,14.33374 2.08006,13.72801 0.83688,-0.27776 1.30071,-4.04617 1.49554,-12.1506 z m 2.23779,-16.62661 c 1.53881,-2.87528 0.30159,-5.84336 -2.75558,-6.61066 -4.59889,-1.15425 -7.70815,5.23277 -3.83757,7.88312 2.06401,1.41331 5.5119,0.74788 6.59315,-1.27246 z m -2.02021,-11.90321 c 0,-2.49585 -1.96428,-3.72468 -3.09649,-1.93714 -1.45817,2.30217 -1.01259,3.87812 1.09649,3.87812 1.31306,0 2,-0.66667 2,-1.94098 z"
       style="fill:#0199ef;fill-opacity:1" />
  </g>
</svg>
