<?xml version="1.0" encoding="UTF-8" standalone="no"?>
<svg
   xmlns:dc="http://purl.org/dc/elements/1.1/"
   xmlns:cc="http://creativecommons.org/ns#"
   xmlns:rdf="http://www.w3.org/1999/02/22-rdf-syntax-ns#"
   xmlns:svg="http://www.w3.org/2000/svg"
   xmlns="http://www.w3.org/2000/svg"
   xmlns:sodipodi="http://sodipodi.sourceforge.net/DTD/sodipodi-0.dtd"
   xmlns:inkscape="http://www.inkscape.org/namespaces/inkscape"
   viewBox="0 0 24.654181 24.75975"
   height="24.75975"
   width="24.654181"
   version="1.1"
   id="svg2"
   inkscape:version="0.91 r13725"
   sodipodi:docname="facebook.svg">
  <sodipodi:namedview
     pagecolor="#ffffff"
     bordercolor="#666666"
     borderopacity="1"
     objecttolerance="10"
     gridtolerance="10"
     guidetolerance="10"
     inkscape:pageopacity="0"
     inkscape:pageshadow="2"
     inkscape:window-width="689"
     inkscape:window-height="480"
     id="namedview8"
     showgrid="false"
     inkscape:zoom="9.5315985"
     inkscape:cx="12.32709"
     inkscape:cy="12.379875"
     inkscape:window-x="2385"
     inkscape:window-y="243"
     inkscape:window-maximized="0"
     inkscape:current-layer="svg2" />
  <metadata
     id="metadata8">
    <rdf:RDF>
      <cc:Work
         rdf:about="">
        <dc:format>image/svg+xml</dc:format>
        <dc:type
           rdf:resource="http://purl.org/dc/dcmitype/StillImage" />
        <dc:title />
      </cc:Work>
    </rdf:RDF>
  </metadata>
  <defs
     id="defs6" />
  <path
     id="path3338"
     d="m 11.820088,0.16722051 c -2.0326993,0.08264 -4.0332382,0.662646 -5.7597662,1.80078099 -3.87012,2.551198 -5.496094,5.67507 -5.496094,10.5546885 0,4.879617 1.625974,8.001534 5.496094,10.552733 1.61292,1.063242 4.5085942,1.933594 6.4335942,1.933594 3.98228,0 8.755924,-2.7708 10.646484,-6.177733 1.64764,-2.969169 1.64764,-9.6499725 0,-12.6191415 -2.21905,-3.99891 -6.848376,-6.22672799 -11.320312,-6.04492199 z m 3.410156,4.12499999 c 0.07324,0 0.123047,0.04053 0.152344,0.121094 0.0073,0.01465 0.07031,0.325683 0.1875,0.933593 0.124511,0.600586 0.1875,0.911621 0.1875,0.933594 0,0.08789 -0.06738,0.139648 -0.199219,0.154297 -0.358887,0.03662 -0.712891,0.07031 -1.064453,0.09961 -0.417481,0.05859 -0.737305,0.205078 -0.957031,0.439453 -0.358887,0.388184 -0.53711,1.373047 -0.53711,2.955078 0.241699,0 0.622559,0.0068 1.142578,0.02148 0.52002,0.01465 0.91211,0.02148 1.175782,0.02148 0.175781,0 0.263671,0.065431 0.263671,0.1972655 0,0.205079 0.0068,0.513672 0.02148,0.923829 0.01465,0.402832 0.02148,0.702636 0.02148,0.90039 0,0.13916 -0.07227,0.208984 -0.21875,0.208984 -0.256347,0 -0.645996,-0.01123 -1.166015,-0.0332 -0.52002,-0.0293 -0.903321,-0.04297 -1.152344,-0.04297 l 0,3.285156 c 0,0.512695 0.01807,1.288086 0.05469,2.328125 0.03662,1.040039 0.05469,1.817383 0.05469,2.330078 0,0.197754 -0.07227,0.294922 -0.21875,0.294922 l -2.011719,0 c -0.19043,0 -0.285156,-0.112793 -0.285156,-0.339844 l 0,-7.558594 c 0,-0.197754 -0.223145,-0.29248 -0.669922,-0.285156 -0.4833983,0.0073 -0.7402343,-0.01074 -0.7695313,-0.05469 -0.02197,-0.02197 -0.0332,-0.157227 -0.0332,-0.40625 0,-0.161133 -0.0068,-0.399903 -0.02148,-0.714844 -0.01465,-0.322266 -0.02148,-0.563477 -0.02148,-0.724609 0,-0.153809 0.464355,-0.257325 1.3945313,-0.3085945 -0.02197,-0.46875 -0.0332,-0.84961 -0.0332,-1.142578 0,-1.296387 0.231934,-2.245117 0.693359,-2.845703 0.410157,-0.541993 1.009766,-0.965821 1.800782,-1.273438 0.710449,-0.27832 1.447265,-0.417969 2.208984,-0.417969 z"
     style="fill:#ffffff" />
  <path
     id="path3338-8-3"
     d="m 31.169036,-23.275685 c -6.06952,-3.700805 -7.92512,-10.860546 -4.33903,-16.741934 4.99414,-8.190656 16.08683,-8.190656 21.08097,0 2.481934,4.070501 2.481934,8.332401 0,12.402902 -3.70081,6.069524 -10.86055,7.925125 -16.74194,4.339032 z m 9.541804,-6.075351 c 1.246895,-1.1387 2.952492,-3.169127 3.718248,-4.912827 0.402255,-0.915973 0.510835,-1.792234 0.417232,-2.514963 -0.0468,-0.361365 -0.07244,-0.791913 0.651632,-1.02643 -0.63843,-0.09109 -1.244259,-0.416423 -1.447497,-0.567347 -1.560033,-1.158478 -5.201605,-0.566288 -5.785561,1.165975 -0.802586,2.380816 -3.301188,1.284791 -5.565658,-0.764528 -1.73216,-1.567577 -1.649474,-2.790893 -1.82875,1.277494 0,1.612865 0.70052,3.932609 1.55671,5.154988 1.41623,2.021956 1.98475,2.04323 1.98475,2.04323 0,0 -0.692215,1.20296 -3.758546,1.501973 3.047468,1.26879 7.950171,0.450754 10.05744,-1.357565 z"
     style="fill:#000000" />
  <path
     id="path3338-8-31"
     d="m -46.865974,-45.6363 c -4.021709,0 -8.043948,2.047251 -10.541015,6.142578 -3.586093,5.881388 -1.729683,13.041381 4.339844,16.742188 3.863239,2.355553 7.771171,2.490915 11.794921,0.410156 6.3365,-3.276735 8.607606,-11.149182 4.947266,-17.152344 -2.49707,-4.095327 -6.519306,-6.142578 -10.541016,-6.142578 z m -5.43164,4.490234 c 0.410156,0 0.761719,0.128418 1.054687,0.384766 0.300293,0.256348 0.451172,0.585449 0.451172,0.988281 0,0.900879 -0.502441,1.351563 -1.505859,1.351563 -1.018067,0 -1.527344,-0.450684 -1.527344,-1.351563 0,-0.402832 0.157715,-0.736328 0.472656,-1 0.292969,-0.249023 0.644531,-0.373047 1.054688,-0.373047 z m 9.898437,3.757813 c 1.376953,0 2.318848,0.398926 2.824219,1.197266 0.373535,0.585937 0.560547,1.534668 0.560547,2.845703 0,0.227051 -0.0068,0.574218 -0.02148,1.042968 -0.0073,0.46875 -0.01172,0.820313 -0.01172,1.054688 0,0.490723 0.0068,1.223145 0.02148,2.197266 0.01465,0.974121 0.02149,1.706543 0.02149,2.197265 0,0.161133 -0.07227,0.242188 -0.21875,0.242188 -0.2417,0 -0.604493,-0.0044 -1.087891,-0.01172 -0.476074,-0.0073 -0.834473,-0.0098 -1.076172,-0.0098 -0.131836,0 -0.197266,-0.105957 -0.197266,-0.318359 0,-0.358887 0.0093,-0.90625 0.03125,-1.638672 0.02197,-0.732422 0.0332,-1.280273 0.0332,-1.646484 0,-0.292969 -0.0024,-0.729981 -0.0098,-1.308594 -0.0073,-0.585937 -0.01172,-1.025391 -0.01172,-1.318359 0,-0.834961 -0.121582,-1.42334 -0.363281,-1.767578 -0.292969,-0.410157 -0.833985,-0.615235 -1.625,-0.615235 -0.366211,0 -0.875488,0.205078 -1.527344,0.615235 -0.688476,0.432128 -1.033203,0.815429 -1.033203,1.152343 l 0,6.591797 c 0,0.183106 -0.06982,0.275391 -0.208984,0.275391 -0.234375,0 -0.585938,-0.0044 -1.054688,-0.01172 -0.46875,-0.0073 -0.820312,-0.0098 -1.054687,-0.0098 -0.153809,0 -0.230469,-0.08545 -0.230469,-0.253906 0,-0.578613 0.0088,-1.446289 0.02344,-2.603516 0.02197,-1.157226 0.03125,-2.029296 0.03125,-2.615234 0,-1.560058 -0.16455,-2.998047 -0.49414,-4.316406 -0.02197,-0.06592 -0.0332,-0.113281 -0.0332,-0.142578 0,-0.07324 0.04932,-0.125 0.144531,-0.154297 0.05127,-0.0073 0.468262,-0.07275 1.251953,-0.197266 0.791016,-0.131836 1.203613,-0.199219 1.240234,-0.199219 0.04395,0 0.07324,0.05859 0.08789,0.175782 0.03662,0.454101 0.12207,0.913574 0.253906,1.375 0.38086,-0.300293 0.881348,-0.674317 1.503907,-1.121094 0.769042,-0.46875 1.512695,-0.703125 2.230468,-0.703125 z m -11.128906,0.384766 c 0.131836,0 0.334473,0.01807 0.605469,0.05469 0.27832,0.03662 0.48584,0.05469 0.625,0.05469 0.13916,0 0.344238,-0.01807 0.615234,-0.05469 0.27832,-0.03662 0.487793,-0.05469 0.626953,-0.05469 0.124512,0 0.185547,0.06982 0.185547,0.208984 0,0.563965 -0.03613,1.416016 -0.109375,2.558594 -0.06592,1.135254 -0.09766,1.989258 -0.09766,2.560547 0,0.534668 0.0093,1.336914 0.03125,2.40625 0.02197,1.062011 0.0332,1.855468 0.0332,2.382812 0,0.153809 -0.06543,0.230469 -0.197266,0.230469 l -2.142578,0 c -0.153808,0 -0.230469,-0.148926 -0.230469,-0.449219 0,-0.505371 0.01123,-1.264648 0.0332,-2.27539 0.0293,-1.018067 0.04297,-1.782227 0.04297,-2.294922 0,-0.571289 -0.04297,-1.427735 -0.130859,-2.570313 -0.08057,-1.142578 -0.121094,-2.000976 -0.121094,-2.572265 0,-0.124512 0.07666,-0.185547 0.230469,-0.185547 z"
     style="fill:#0199e6;fill-opacity:1" />
</svg>
