<?xml version="1.0" encoding="UTF-8" standalone="no"?>
<svg
   xmlns:dc="http://purl.org/dc/elements/1.1/"
   xmlns:cc="http://creativecommons.org/ns#"
   xmlns:rdf="http://www.w3.org/1999/02/22-rdf-syntax-ns#"
   xmlns:svg="http://www.w3.org/2000/svg"
   xmlns="http://www.w3.org/2000/svg"
   version="1.1"
   id="svg2"
   viewBox="0 0 49.936085 50.001999"
   height="14.111675mm"
   width="14.093073mm">
  <defs
     id="defs4" />
  <metadata
     id="metadata7">
    <rdf:RDF>
      <cc:Work
         rdf:about="">
        <dc:format>image/svg+xml</dc:format>
        <dc:type
           rdf:resource="http://purl.org/dc/dcmitype/StillImage" />
        <dc:title></dc:title>
      </cc:Work>
    </rdf:RDF>
  </metadata>
  <g
     transform="translate(-481.02308,-478.92724)"
     id="layer1">
    <path
       id="path4199"
       d="m 485.22438,527.9805 c -0.79174,-0.79174 -1.2,-5.04444 -1.2,-12.5 0,-9.53948 -0.24147,-11.3 -1.5499,-11.3 -1.25495,0 -1.49283,-1.09427 -1.25,-5.75 l 0.2999,-5.75 24.5,0 24.5,0 0.2999,5.75 c 0.24283,4.65573 0.005,5.75 -1.25,5.75 -1.30843,0 -1.5499,1.76052 -1.5499,11.3 0,7.45556 -0.40826,11.70826 -1.2,12.5 -1.69468,1.69468 -39.90532,1.69468 -41.6,0 z m 17.8,-12.8 0,-11 -8,0 -8,0 0,11 0,11 8,0 8,0 0,-11 z m 22,0 0,-11 -8,0 -8,0 0,11 0,11 8,0 8,0 0,-11 z m -22,-17.5 0,-3.5 -9.5,0 -9.5,0 0,3.5 0,3.5 9.5,0 9.5,0 0,-3.5 z m 25,-0.0375 0,-3.53753 -9.25,0.28753 -9.25,0.28753 -0.31336,3.25 -0.31336,3.25 9.56336,0 9.56336,0 0,-3.53753 z m -39.42857,-11.0339 c -2.06028,-2.06027 -1.98523,-3.74411 0.25731,-5.77358 2.37515,-2.14948 6.89781,-2.10148 10.67126,0.11328 3.72894,2.18862 9.0034,2.16139 13.20034,-0.0682 4.16983,-2.21514 8.57173,-2.16195 10.64467,0.12862 2.06619,2.28311 2.08581,3.59759 0.0836,5.59983 -2.32321,2.32321 -32.53393,2.32321 -34.85714,0 z m 10.95251,-2.38984 c -0.77833,-1.25936 -7.08668,-2.42701 -8.47537,-1.56875 -2.10029,1.29805 0.12477,2.53002 4.56946,2.53002 2.62448,0 4.25239,-0.40064 3.90591,-0.96127 z m 21.68679,-0.53873 c -0.39723,-1.3732 -7.07676,-1.0363 -8.53103,0.43029 -0.91083,0.91855 -0.0401,1.11905 3.8203,0.87971 2.75,-0.1705 4.86983,-0.76 4.71073,-1.31 z"
       style="fill:#0199ef;fill-opacity:1" />
  </g>
</svg>
