<?xml version="1.0" encoding="UTF-8" standalone="no"?>
<svg
   xmlns:dc="http://purl.org/dc/elements/1.1/"
   xmlns:cc="http://creativecommons.org/ns#"
   xmlns:rdf="http://www.w3.org/1999/02/22-rdf-syntax-ns#"
   xmlns:svg="http://www.w3.org/2000/svg"
   xmlns="http://www.w3.org/2000/svg"
   viewBox="0 0 206.10023 206.09604"
   height="206.09604"
   width="206.10023"
   version="1.1"
   id="svg2">
  <metadata
     id="metadata8">
    <rdf:RDF>
      <cc:Work
         rdf:about="">
        <dc:format>image/svg+xml</dc:format>
        <dc:type
           rdf:resource="http://purl.org/dc/dcmitype/StillImage" />
        <dc:title></dc:title>
      </cc:Work>
    </rdf:RDF>
  </metadata>
  <defs
     id="defs6" />
  <path
     id="path4151"
     d="M 17.833165,204.54326 C 9.8171352,201.68347 4.4125552,196.27889 1.5527552,188.26287 -0.53889484,182.39994 -0.50738484,24.43149 1.5868552,17.41196 3.5510452,10.82828 8.3621452,5.24012 14.544715,2.36123 L 19.615575,0 103.61558,0.0122 c 79.20909,0.0115 84.22814,0.1164 88,1.83928 5.23481,2.39112 12.06966,9.91654 13.41851,14.77429 0.72105,2.59679 1.06897,30.94023 1.06614,86.8547 l -0.004,83 -2.36123,5.07086 c -2.87889,6.18257 -8.46705,10.99367 -15.05073,12.95786 -7.01953,2.09423 -164.987985,2.12574 -170.850915,0.0341 z m 72.07456,-30.15467 c 9.59349,-1.9813 17.278335,-5.68064 22.631905,-10.89458 6.37411,-6.20786 8.07594,-10.53065 8.07594,-20.51355 0,-7.46654 -0.33347,-9.06727 -2.74275,-13.16569 -1.50851,-2.56613 -5.74131,-7.29113 -9.40624,-10.5 C 88.351115,101.70241 88.295095,101.51503 99.729085,90.0888 108.37529,81.44848 112.09109,74.79044 112.1058,67.91196 c 0.0157,-7.34255 -2.66198,-14.62007 -7.18453,-19.52647 l -4.06042,-4.40503 5.511,0 c 5.21347,0 5.71866,-0.22945 9.3576,-4.25 l 3.8466,-4.25 -5.98024,-0.31351 c -3.28913,-0.17243 -15.205245,-0.15909 -26.480245,0.0296 -23.00468,0.38507 -27.78404,1.48331 -35.6112,8.18307 -10.74143,9.19426 -13.88705,27.24343 -6.84346,39.26684 5.11632,8.73357 16.96867,15.33396 27.53524,15.33396 3.7409,0 3.83741,0.0855 2.89467,2.5651 -1.63033,4.28809 -1.10667,8.96215 1.42145,12.68755 l 2.39671,3.53173 -7.64671,0.68189 c -24.03011,2.14286 -37.31442,11.13242 -39.67073,26.84538 -3.22224,21.48748 26.27922,36.71294 58.31619,30.09648 z m -25.82278,-7.94407 c -5.58703,-1.7223 -12.38669,-7.40157 -15.00387,-12.53167 -2.39948,-4.70336 -2.54696,-11.90481 -0.33909,-16.55755 6.10731,-12.87021 27.74547,-19.16336 42.88969,-12.47387 21.190575,9.36028 20.436485,34.40029 -1.23759,41.09472 -7.6365,2.35868 -19.49241,2.56974 -26.30914,0.46837 z m 7.26062,-76.57924 c -15.77378,-7.80788 -20.74462,-34.70101 -8.34286,-45.1364 9.4889,-7.98439 24.30724,-1.19283 30.13321,13.81069 3.16832,8.15933 3.37344,20.41941 0.42558,25.43749 -4.58827,7.81054 -13.53943,10.183 -22.21593,5.88822 z m 84.770005,-15.38482 0,-9.5 9.5,0 9.5,0 0,-4.5 0,-4.5 -9.5,0 -9.5,0 0,-10 0,-10 -4.46379,0 -4.46379,0 -0.28621,9.75 -0.28621,9.75 -9.25,0.28753 -9.25,0.28752 0,4.46248 0,4.46247 9.5,0 9.5,0 0,9.5 0,9.5 4.5,0 4.5,0 0,-9.5 z"
     style="fill:#0199e6;fill-opacity:1" />
</svg>
