<?xml version="1.0" encoding="UTF-8" standalone="no"?>
<svg
   xmlns:dc="http://purl.org/dc/elements/1.1/"
   xmlns:cc="http://creativecommons.org/ns#"
   xmlns:rdf="http://www.w3.org/1999/02/22-rdf-syntax-ns#"
   xmlns:svg="http://www.w3.org/2000/svg"
   xmlns="http://www.w3.org/2000/svg"
   viewBox="0 0 640.16112 640.10974"
   height="640.10974"
   width="640.16113"
   version="1.1"
   id="svg2">
  <metadata
     id="metadata8">
    <rdf:RDF>
      <cc:Work
         rdf:about="">
        <dc:format>image/svg+xml</dc:format>
        <dc:type
           rdf:resource="http://purl.org/dc/dcmitype/StillImage" />
        <dc:title></dc:title>
      </cc:Work>
    </rdf:RDF>
  </metadata>
  <defs
     id="defs6" />
  <path
     id="path4164"
     d="M 49.171507,638.28484 C 25.774707,632.61553 6.3095072,612.54496 1.4525072,589.08189 -0.47889281,579.75178 -0.48609281,60.460082 1.4425072,51.079952 6.3434072,27.274712 27.272607,6.3455519 51.077807,1.4446419 c 9.3801,-1.93113002 528.671803,-1.92390002 538.002003,0.008 24.1029,4.98949 44.6383,25.5248201 49.6278,49.6278101 1.938,9.36232 1.938,528.639618 0,538.001948 -4.9895,24.10299 -25.5249,44.63832 -49.6278,49.62781 -10.2481,2.12143 -531.094003,1.71156 -539.910803,-0.42486 z M 509.69381,569.91796 c 15.6486,-5.72487 25.1789,-11.88767 37.2625,-24.09597 12.3353,-12.46262 17.8072,-20.75321 22.901,-34.69782 l 3.349,-9.16825 0.3407,-129.0625 0.3408,-129.0625 -69.1069,0 -69.1069,0 -7.225,-8.4375 -7.2251,-8.4375 76.3857,-0.32214 76.3856,-0.32214 -0.4503,-46.55286 c -0.4307,-44.52199 -0.5722,-46.87953 -3.243,-54.04084 -8.4796,-22.73612 -26.765,-42.660568 -49.6956,-54.150338 -16.2056,-8.1201 -7.6683,-7.73668 -172.268,-7.73668 l -149.507,0 0,73.124998 0,73.125 -50,0 -50.000003,0 0,-63.23612 0,-63.236108 -4.0625,3.39027 c -7.3401,6.12549 -17.0872,18.540678 -22.1493,28.212028 -8.4575,16.15876 -8.7882,18.70328 -8.7882,67.62294 l 0,43.47777 76.265803,0.3221 76.2659,0.32212 -7.6153,8.4375 -7.6154,8.4375 -68.6505,0 -68.650503,0 -0.3125,87.8125 c -0.5498,154.49089 -0.4759,163.4131 1.4167,170.9375 7.8956,31.39064 36.746503,60.88161 67.781903,69.28581 5.7819,1.5657 32.3888,1.79035 187.3639,1.58201 l 180.625,-0.24282 8.9875,-3.28796 z M 306.33131,448.58909 c -54.2645,-3.96111 -101.6316,-44.92721 -115.3456,-99.75817 -4.0704,-16.27399 -3.7693,-44.93333 0.645,-61.3986 6.3386,-23.6433 17.5729,-43.12302 34.5376,-59.88639 21.7734,-21.51508 47.3505,-33.83096 78.0645,-37.58964 31.8252,-3.89467 67.5342,6.03408 94.1866,26.18824 41.962,31.73108 60.5383,86.7217 46.5676,137.85225 -3.1309,11.45865 -13.0342,31.97283 -19.8336,41.08414 -8.6088,11.53604 -22.619,24.84985 -34.25,32.54762 -24.8975,16.478 -52.4459,23.30564 -84.5721,20.96055 z m 41.875,-19.11068 c 11.8225,-3.29475 30.4074,-12.63746 40.4751,-20.34707 54.7959,-41.96132 59.7822,-123.41766 10.5397,-172.17797 -51.3482,-50.84533 -136.6787,-41.78816 -176.3838,18.72177 -6.9891,10.65126 -12.762,24.20736 -16.1223,37.85914 -3.1489,12.79296 -2.8455,37.88414 0.628,51.92333 10.4722,42.3274 44.6373,75.71335 87.1133,85.1267 11.5606,2.56202 42.9023,1.91716 53.75,-1.1059 z m -46.875,-28.83626 c -4.4688,-0.95703 -13.4565,-4.37553 -19.9729,-7.59668 -31.8934,-15.76565 -51.1629,-51.53061 -46.3618,-86.0495 2.8262,-20.31992 10.3345,-35.64302 24.4676,-49.93418 10.2166,-10.33084 21.015,-16.98944 34.9921,-21.57714 8.3859,-2.75251 12.3202,-3.29055 24.375,-3.33343 26.6581,-0.0949 45.9126,8.26718 63.9864,27.7886 14.1485,15.28163 20.8185,31.34031 21.8646,52.6411 0.7813,15.90819 -1.4299,27.81761 -7.5347,40.58102 -8.9186,18.64619 -21.9184,31.78194 -40.1913,40.61138 -17.4606,8.43692 -37.023,10.85257 -55.625,6.86883 z m 142.0516,-206.68359 c -8.2435,-5.43484 -8.2843,-5.66403 -8.2934,-46.59423 l -0.01,-37.0916 3.2739,-3.8908 c 6.2549,-7.433508 6.9684,-7.551008 45.8542,-7.551008 50.8705,0 48.3671,-2.54242 48.37,49.124568 0,38.06313 -0.1312,38.85983 -7.5491,45.10153 l -3.8908,3.2739 -37.0916,-0.009 c -34.2299,-0.007 -37.3673,-0.19 -40.665,-2.36413 z"
     style="fill:#0199e6;fill-opacity:1" />
</svg>
