<?xml version="1.0" encoding="UTF-8" standalone="no"?>
<svg
   xmlns:dc="http://purl.org/dc/elements/1.1/"
   xmlns:cc="http://creativecommons.org/ns#"
   xmlns:rdf="http://www.w3.org/1999/02/22-rdf-syntax-ns#"
   xmlns:svg="http://www.w3.org/2000/svg"
   xmlns="http://www.w3.org/2000/svg"
   version="1.1"
   id="svg2"
   viewBox="0 0 49.999998 50.127275"
   height="14.147031mm"
   width="14.111111mm">
  <defs
     id="defs4" />
  <metadata
     id="metadata7">
    <rdf:RDF>
      <cc:Work
         rdf:about="">
        <dc:format>image/svg+xml</dc:format>
        <dc:type
           rdf:resource="http://purl.org/dc/dcmitype/StillImage" />
        <dc:title></dc:title>
      </cc:Work>
    </rdf:RDF>
  </metadata>
  <g
     transform="translate(-482.03452,-480.29647)"
     id="layer1">
    <path
       id="path4212"
       d="m 491.53452,527.29505 c -3.85,-1.70115 -7.5625,-3.5427 -8.25,-4.09234 -0.92652,-0.74072 -1.25,-6.28076 -1.25,-21.40827 0,-17.50345 0.22046,-20.49354 1.5486,-21.00319 0.85173,-0.32684 4.6944,0.85574 8.53927,2.62795 l 6.99067,3.22221 7.87018,-3.17247 7.87018,-3.17247 7.34055,3.1966 c 4.0373,1.75813 7.90305,3.64738 8.59055,4.19834 0.92645,0.74245 1.25,6.28447 1.25,21.41069 0,17.50345 -0.22046,20.49354 -1.5486,21.00319 -0.85173,0.32684 -4.6944,-0.85574 -8.53927,-2.62795 l -6.99067,-3.22221 -7.71073,3.10195 c -4.2409,1.70607 -7.93573,3.08598 -8.21073,3.06646 -0.275,-0.0195 -3.65,-1.42733 -7.5,-3.12849 z m 37.5,-18.71607 0,-18.86928 -6.06591,-2.63072 c -3.33626,-1.44689 -6.26126,-2.63071 -6.5,-2.63071 -0.23875,0 -0.43409,8.35275 -0.43409,18.56167 l 0,18.56167 6.25,2.89244 c 3.4375,1.59084 6.3625,2.91309 6.5,2.93833 0.1375,0.0252 0.25,-8.44529 0.25,-18.8234 z m -31,-0.60503 0,-18.47432 -2.75,-1.41467 c -1.5125,-0.77807 -4.4375,-2.11666 -6.5,-2.97465 l -3.75,-1.55999 0,18.82183 0,18.82182 5.75,2.56134 c 3.1625,1.40873 6.0875,2.59094 6.5,2.62714 0.4125,0.0362 0.75,-8.24762 0.75,-18.4085 z m 9.77797,16.02678 5.22203,-1.94755 0,-18.88579 c 0,-10.38718 -0.35009,-18.73579 -0.77797,-18.55245 -0.42788,0.18333 -3.12788,1.20972 -6,2.28087 l -5.22203,1.94755 0,18.88579 c 0,10.38718 0.35009,18.73579 0.77797,18.55245 0.42788,-0.18333 3.12788,-1.20973 6,-2.28087 z"
       style="fill:#0199ef;fill-opacity:1" />
  </g>
</svg>
