<?xml version="1.0" encoding="UTF-8" standalone="no"?>
<svg
   xmlns:dc="http://purl.org/dc/elements/1.1/"
   xmlns:cc="http://creativecommons.org/ns#"
   xmlns:rdf="http://www.w3.org/1999/02/22-rdf-syntax-ns#"
   xmlns:svg="http://www.w3.org/2000/svg"
   xmlns="http://www.w3.org/2000/svg"
   viewBox="0 0 547.53741 547.81451"
   height="547.81451"
   width="547.53741"
   version="1.1"
   id="svg2">
  <metadata
     id="metadata8">
    <rdf:RDF>
      <cc:Work
         rdf:about="">
        <dc:format>image/svg+xml</dc:format>
        <dc:type
           rdf:resource="http://purl.org/dc/dcmitype/StillImage" />
        <dc:title></dc:title>
      </cc:Work>
    </rdf:RDF>
  </metadata>
  <defs
     id="defs6" />
  <path
     id="path4138"
     d="M 120.64549,547.39554 C 78.078988,546.57564 74.751738,546.08334 58.145488,538.14792 36.360689,527.73788 16.588599,507.06866 7.4053886,485.10556 -0.30776141,466.65832 -0.00634141,475.26686 0.00379859,273.7222 0.01179859,110.99541 0.23969859,88.842068 1.9920686,80.294758 6.0044386,60.724208 14.511699,45.417975 29.966629,29.963045 45.421559,14.508114 60.727788,6.0008539 80.298338,1.9884849 88.845648,0.23611194 110.99899,0.00839294 273.72577,2.1193878e-4 436.86029,-0.00798806 458.58948,0.21427894 467.1979,1.9792469 c 19.61718,4.022063 34.90952,12.5168621 50.37645,27.9837981 15.46694,15.466935 23.96174,30.759273 27.9838,50.376453 1.76497,8.60842 1.98724,30.337612 1.97904,193.472152 -0.009,162.72677 -0.2359,184.88011 -1.98827,193.42742 -4.01238,19.57055 -12.51963,34.87679 -27.97457,50.33171 -15.45691,15.45693 -30.76085,23.96212 -50.33912,27.97609 -8.46404,1.73531 -26.32815,1.98069 -144.26462,1.98153 -74.0324,5.1e-4 -134.82482,-0.2195 -135.09426,-0.48895 -0.26944,-0.26944 2.39908,-4.91287 5.93003,-10.31872 9.9278,-15.19931 19.33725,-32.47377 24.38853,-44.77396 2.5286,-6.15734 9.04484,-28.65734 14.4805,-50 5.43568,-21.34267 10.12538,-39.47484 10.42158,-40.29371 0.29934,-0.8276 4.59347,2.52996 9.66851,7.55976 15.94368,15.8016 33.83043,22.6427 59.12999,22.61531 37.35352,-0.0405 67.88576,-13.30912 93.65266,-40.6995 33.25133,-35.34636 50.72234,-84.30866 50.72234,-142.14871 0,-25.66646 -4.54533,-45.55906 -15.32689,-67.07809 -7.99967,-15.96662 -16.66085,-27.85236 -30.18175,-41.41845 -22.87791,-22.95435 -51.5673,-38.22001 -85.79552,-45.651872 -11.31036,-2.45579 -16.77474,-2.84488 -40.57084,-2.88881 -27.98075,-0.0516 -35.81816,0.74766 -56.25,5.73691 -43.9822,10.740012 -77.68535,32.820192 -104.4171,68.407472 -20.64106,27.47893 -30.680942,55.1516 -32.072462,88.40064 -1.73354,41.42102 9.396132,73.8628 32.649762,95.17052 8.19036,7.50499 21.86187,15.35868 26.73599,15.35868 5.4289,0 8.5397,-4.94538 11.96697,-19.02445 1.79401,-7.3697 3.26184,-14.50601 3.26184,-15.85849 0,-1.35247 -2.62736,-6.29147 -5.83858,-10.97555 -12.75973,-18.61216 -16.09397,-30.23652 -15.88805,-55.39151 0.17958,-21.93649 3.53283,-36.66344 12.43198,-54.59914 19.61784,-39.53862 54.23742,-64.15622 99.15249,-70.50624 12.98462,-1.83574 41.12498,-0.86674 53.57031,1.84468 50.83206,11.07459 80.32185,48.93446 80.32185,103.1196 0,68.02111 -28.8876,127.24871 -67.83388,139.07829 -12.33428,3.74642 -28.87416,2.96679 -38.663,-1.82244 -13.19408,-6.45526 -22.04002,-19.40404 -23.1678,-33.91325 -0.66713,-8.58306 1.25073,-17.15094 10.92953,-48.8265 11.60292,-37.9726 12.84089,-43.63639 12.9816,-59.39221 0.12387,-13.87246 -0.0202,-14.69468 -3.99038,-22.768 -7.05443,-14.34515 -18.48337,-20.70105 -34.86001,-19.38649 -24.36094,1.95546 -43.61301,25.0794 -47.93789,57.57886 -1.82392,13.70595 0.0567,33.59799 4.39979,46.53552 l 3.1439,9.3655 -18.0854,76.53341 c -9.94696,42.09337 -18.77916,80.75216 -19.6271,85.90841 -1.74262,10.59667 -2.16595,50.72315 -0.68755,65.17115 l 0.97683,9.54615 -4.10183,0.45385 c -2.256,0.24961 -21.53931,0.11798 -42.85181,-0.29253 z"
     style="fill:#0199e6;fill-opacity:1" />
</svg>
