<?xml version="1.0" encoding="UTF-8" standalone="no"?>
<svg
   xmlns:dc="http://purl.org/dc/elements/1.1/"
   xmlns:cc="http://creativecommons.org/ns#"
   xmlns:rdf="http://www.w3.org/1999/02/22-rdf-syntax-ns#"
   xmlns:svg="http://www.w3.org/2000/svg"
   xmlns="http://www.w3.org/2000/svg"
   xml:space="preserve"
   enable-background="new 0 0 674 579"
   viewBox="0 0 713.98499 595.805"
   height="595.80499"
   width="713.98499"
   y="0px"
   x="0px"
   id="Слой_1"
   version="1.1"><metadata
     id="metadata11"><rdf:RDF><cc:Work
         rdf:about=""><dc:format>image/svg+xml</dc:format><dc:type
           rdf:resource="http://purl.org/dc/dcmitype/StillImage" /><dc:title></dc:title></cc:Work></rdf:RDF></metadata><defs
     id="defs9" /><g
     transform="translate(-8.414,0)"
     id="g4144"><g
       id="g4146"><g
         id="g4148"><path
           style="fill:#0199e6"
           d="m 258.314,340.785 c 81.683,0 147.899,-66.217 147.899,-147.9 0,-81.682 -66.217,-147.9 -147.899,-147.9 -81.682,0 -147.899,66.217 -147.899,147.9 0,81.683 66.217,147.9 147.899,147.9 z m 70.062,-89.196 c -6.729,22.246 -35.549,38.968 -70.09,38.968 -34.542,0 -63.363,-16.723 -70.091,-38.968 l 140.181,0 z m 17.122,340.909 c -25.437,2.044 -54.36,3.286 -87.184,3.286 -142.606,0 -212.393,-23.302 -237.979,-34.686 C 13.733,558.16 8.414,549.762 8.414,542.535 l 0,-48.751 c 0,-73.056 55.624,-133.663 126.599,-141.78 2.157,-0.246 5.355,0.678 7.113,1.949 32.726,23.691 72.79,37.831 116.188,37.831 43.398,0 83.464,-14.14 116.188,-37.831 1.758,-1.271 4.957,-2.195 7.113,-1.949 51.102,5.845 94.165,38.931 114.298,84.258"
           id="path4150" /></g><path
         style="fill:#0199e6"
         d="m 260.099,391.806 c 43.398,0 83.463,-14.141 116.188,-37.832 1.758,-1.271 4.956,-2.195 7.112,-1.949 70.976,8.117 126.6,68.725 126.6,141.781 l 0,48.75 c 0,7.227 -5.318,15.625 -11.921,18.563 -25.586,11.385 -95.372,34.686 -237.979,34.686"
         id="path4152" /></g><path
       style="fill:#0199e6"
       d="m 470.963,0 c -37.592,0 -71.901,14.032 -97.995,37.135 45.824,25.128 81.532,73.75 81.532,129.699 0,14.483 -0.119,28.441 -4,41.669 l 90.553,0.102 c -6.729,22.246 -34.487,40.154 -69.028,40.154 -14.809,0 -18.254,1.637 -29.67,-3.628 -5.315,17.483 -12.982,32.085 -25.35,43.035 24.923,8.276 28.224,7.635 53.958,7.635 81.682,0 147.898,-66.216 147.898,-147.899 C 618.861,66.218 552.645,0 470.963,0 Z"
       id="path4154" /><path
       style="fill:#0199e6"
       d="m 595.8,295.844 c -0.397,-0.045 -0.838,-0.039 -1.29,-0.01 -2.149,-0.166 -5.192,0.729 -6.894,1.959 -32.725,23.691 -72.79,37.83 -116.188,37.83 -10.731,0 -21.255,-0.874 -31.517,-2.536 64.206,16.131 97.117,72.067 111.748,143.442 4.573,22.311 6.949,55.927 5.427,60.025 98.527,-2.392 132.108,-22.147 153.392,-31.617 6.603,-2.938 11.921,-11.336 11.921,-18.563 l 0,-48.75 c 0,-73.056 -55.624,-133.663 -126.599,-141.78 z"
       id="path4156" /></g></svg>