<?xml version="1.0" encoding="UTF-8" standalone="no"?>
<svg
   xmlns:dc="http://purl.org/dc/elements/1.1/"
   xmlns:cc="http://creativecommons.org/ns#"
   xmlns:rdf="http://www.w3.org/1999/02/22-rdf-syntax-ns#"
   xmlns:svg="http://www.w3.org/2000/svg"
   xmlns="http://www.w3.org/2000/svg"
   xml:space="preserve"
   enable-background="new 0 0 674 579"
   viewBox="0 0 803.16834 726.07826"
   height="726.07825"
   width="803.16833"
   y="0px"
   x="0px"
   id="Слой_1"
   version="1.1"><metadata
     id="metadata11"><rdf:RDF><cc:Work
         rdf:about=""><dc:format>image/svg+xml</dc:format><dc:type
           rdf:resource="http://purl.org/dc/dcmitype/StillImage" /><dc:title></dc:title></cc:Work></rdf:RDF></metadata><defs
     id="defs9" /><path
     style="clip-rule:evenodd;fill:#0199e6;fill-opacity:1;fill-rule:evenodd"
     d="m 803.05602,607.648 c 10e-4,-1.785 0,-3.57 0,-6.05601 l 0.068,-311.29599 c 0,-2.306 0,-4.199 0,-6.092 0,-36.333 0.027,-72.666 -0.01,-108.999 -0.028,-27.478 -17.836,-45.267 -45.42,-45.269 -66.35,-0.006 -132.699,0.001 -199.049,-0.001 C 553.35102,66.969 487.262,0 406.499,0 325.736,0 259.648,66.968 254.353,129.933 184.97,129.935 115.587,129.928 46.205,129.932 22.99,129.934 5.845,142.992 1.535,164.168 0.649,168.524 0.701,173.117 0.7,177.602 0.661,336.43299 0.671,495.264 0.639,654.096 c 0,2.96799 -0.417,5.936 -0.639,8.904 0,9 0,18 0,27 0.614,1.859 1.271,3.705 1.834,5.57899 5.32,17.722 21.19,29.92101 39.633,30.438 1.832,0.051 3.665,0.058 5.498,0.058 236.437,0.003 472.873,0.028 709.31002,-0.127 6.696,-0.005 13.878,-0.725 19.994,-3.191 17.047,-6.876 26.299,-20.219 26.645,-38.633 0.478,-25.484 0.134,-50.983 0.142,-76.476 z M 534.91002,447.06299 C 488.656,481.98099 442.378,516.869 396.108,551.76599 c -5.983,4.513 -12.044,8.926 -17.946,13.542 -7.441,5.82101 -15.485,7.849 -24.198,3.518 -8.704,-4.327 -11.891,-11.949 -11.872,-21.399 0.078,-38.486 0.032,-76.973 0.032,-115.459 0,-38.653 -0.033,-77.306 0.021,-115.959 0.019,-12.384 7.45,-21.107 18.966,-22.474 6.134,-0.728 11.342,1.546 16.27,5.042 47.399,33.623 94.84,67.187 142.269,100.769 4.893,3.464 9.795,6.914 14.67002,10.402 14.663,10.491 14.941,26.481 0.59,37.315 z"
     id="path4172" /></svg>